<svg data-v-423bf9ae="" xmlns="http://www.w3.org/2000/svg" viewBox="0 0 NaN NaN" class="iconAboveSlogan"><!----><!----><!----><g data-v-423bf9ae="" id="941cd799-56a5-4235-8242-20a89cba27c2" fill="#ffffff" transform="matrix(Infinity,0,0,Infinity,0,0)"><path d=""></path></g><!----><g data-v-423bf9ae="" id="995321e4-4546-4b4d-8119-2a35ad6e7f05" transform="matrix(2.247781106735628,0,0,2.247781106735628,-62.38905533678141,-66.38443947750666)" stroke="none" fill="#F6318E"><g data-name="Black hole 1"><path d="M57.17 57.18c-1.62 0-5.86-4-8.41-6.53a63.53 63.53 0 0 1-4.92-5.45c-1.78-2.28-1.88-3-1.46-3.41 1.08-1.09 6 3.53 8.86 6.37s7.46 7.78 6.38 8.84a.61.61 0 0 1-.45.18zm-.07-1zM43.36 42.76a41.93 41.93 0 0 0 6.1 7.18 42.08 42.08 0 0 0 7.18 6.11 41.54 41.54 0 0 0-6.1-7.18 42.08 42.08 0 0 0-7.18-6.11z"></path><path d="M68.41 68.86c-.85 0-2.7-.74-7.06-4.15a162.38 162.38 0 0 1-14-12.65 164.15 164.15 0 0 1-12.66-14c-5.1-6.53-4.21-7.41-3.84-7.79s1.27-1.27 7.8 3.83a164.36 164.36 0 0 1 14 12.66 162.64 162.64 0 0 1 12.66 14c5.1 6.52 4.21 7.41 3.84 7.79a.92.92 0 0 1-.74.31zM31.71 31a.43.43 0 0 0-.17 0c-.45 1.09 5.14 9 16.51 20.37s19.17 16.87 20.38 16.47c.4-1.21-5.19-9.09-16.48-20.38C41 36.54 33.3 31 31.71 31zm36.75 36.83z"></path><path d="M56 43.4a8.32 8.32 0 0 0-11.78 0c-.89 1.11 1.64 3.64 4.89 6.89s5.89 5.9 6.89 4.9a8.33 8.33 0 0 0 0-11.79zm.34 3.6a.39.39 0 0 1-.52-.2 6.16 6.16 0 0 0-1.32-1.9 6.23 6.23 0 0 0-3.77-1.82.4.4 0 0 1-.23-.08.36.36 0 0 1-.11-.32.38.38 0 0 1 .43-.34 7 7 0 0 1 4.24 2 7.23 7.23 0 0 1 1.48 2.16.39.39 0 0 1-.2.5z"></path><path d="M57.12 48.57a.51.51 0 0 1-.36-.15.5.5 0 0 1 0-.7l4.45-4.45a.5.5 0 0 1 .71 0 .51.51 0 0 1 0 .71l-4.45 4.44a.5.5 0 0 1-.35.15zM32.54 60.91a.52.52 0 0 1-.35-.14.5.5 0 0 1 0-.71l4.45-4.45a.5.5 0 0 1 .7 0 .5.5 0 0 1 0 .71l-4.44 4.45a.54.54 0 0 1-.36.14zM55 38.45a.5.5 0 0 1-.35-.85l5.23-5.23a.5.5 0 0 1 .7 0 .5.5 0 0 1 0 .71l-5.22 5.22a.51.51 0 0 1-.36.15zM42 57.69a.5.5 0 0 1-.35-.15.51.51 0 0 1 0-.71l5.23-5.22a.49.49 0 0 1 .7.7l-5.22 5.23a.51.51 0 0 1-.36.15zM62.23 31.22a.5.5 0 0 1-.35-.14.55.55 0 0 1-.15-.36.5.5 0 0 1 .85-.35.47.47 0 0 1 .15.35.51.51 0 0 1-.15.36.5.5 0 0 1-.35.14zM40.1 59.58a.65.65 0 0 1-.19 0 .57.57 0 0 1-.16-.11.51.51 0 0 1-.15-.35.55.55 0 0 1 .15-.36.54.54 0 0 1 .16-.1.51.51 0 0 1 .55.1.54.54 0 0 1 .14.36.5.5 0 0 1-.14.35.62.62 0 0 1-.17.11.58.58 0 0 1-.19 0zM35.65 70a.49.49 0 0 1-.35-.15.51.51 0 0 1-.15-.35.5.5 0 0 1 .15-.35.51.51 0 0 1 .55-.11.42.42 0 0 1 .16.11.51.51 0 0 1 0 .7.42.42 0 0 1-.16.11.45.45 0 0 1-.2.04zM61.12 38.56a.5.5 0 0 1-.35-.85L68 30.48a.51.51 0 0 1 .71 0 .5.5 0 0 1 0 .71l-7.23 7.23a.5.5 0 0 1-.36.14zM39.55 66.14a.51.51 0 0 1-.36-.15.5.5 0 0 1 0-.7l7.23-7.23a.5.5 0 0 1 .71 0 .5.5 0 0 1 0 .7L39.9 66a.49.49 0 0 1-.35.14z"></path></g></g><!----><g data-v-423bf9ae="" id="0c6c9e5d-97d9-4910-801e-d3dfcd2e1409" fill="#ffffff" transform="matrix(0,0,0,0,0,0)"><path d=""></path></g></svg>